<?xml version="1.0" encoding="utf-8"?>
<!-- Generator: Adobe Illustrator 22.0.0, SVG Export Plug-In . SVG Version: 6.00 Build 0)  -->
<svg version="1.1" id="Capa_1" xmlns="http://www.w3.org/2000/svg" xmlns:xlink="http://www.w3.org/1999/xlink" x="0px" y="0px"
	 viewBox="0 0 128 128" style="enable-background:new 0 0 128 128;" xml:space="preserve">
<style type="text/css">
	.st0{fill:#001B38;}
	.st1{fill:#1B84E7;}
	.st2{fill:url(#Path_3272_1_);}
	.st3{fill:url(#Path_3581_1_);}
	.st4{fill:#FFFFFF;}
	.st5{fill:url(#Path_3893_1_);}
	.st6{fill:url(#Path_3895_1_);}
	.st7{fill:url(#Path_3898_1_);}
	.st8{fill:url(#Ellipse_43_1_);}
	.st9{fill:url(#Ellipse_44_1_);}
	.st10{opacity:0.51;}
	.st11{opacity:0.82;}
</style>
<title>icon</title>
<desc>Created with Sketch.</desc>
<g id="icon">
	<path id="Rectangle" class="st0" d="M10,0.5h108c5.5,0,10,4.5,10,10v108c0,5.5-4.5,10-10,10H10c-5.5,0-10-4.5-10-10v-108
		C0,5,4.5,0.5,10,0.5z"/>
</g>
<g>
	
		<image style="overflow:visible;opacity:0.75;" width="129" height="115" xlink:href="22C37D07.png"  transform="matrix(1 0 0 1 5 12)">
	</image>
	<g>
		<g>
			<g id="Group_2713_9_" transform="translate(-4539.063 -1391.407)">
				<g id="Group_2711_9_">
					<g id="Group_1702_9_" transform="translate(3186.063 466.407)">
						<g id="Group_1529_9_" transform="translate(1735.404 1098.679)">
							<g id="Group_1212_9_" transform="translate(0 0)">
								<path id="Path_3271_12_" class="st1" d="M-272.4-84.4l-1.9-0.1c1-28.5-17.4-32-18.2-32.2l0.3-1.8
									C-291.9-118.4-271.4-114.5-272.4-84.4z"/>
							</g>
							<g id="Group_1213_9_" transform="translate(26.262 8.338)">
								
									<linearGradient id="Path_3272_1_" gradientUnits="userSpaceOnUse" x1="-851.4188" y1="384.6175" x2="-851.4188" y2="384.4191" gradientTransform="matrix(32.1674 0 0 -31.0555 27077.5234 11819.4033)">
									<stop  offset="0" style="stop-color:#6A6A69"/>
									<stop  offset="1" style="stop-color:#353535"/>
								</linearGradient>
								<path id="Path_3272_12_" class="st2" d="M-309.4-119.1l2.1-2.6c0.2-0.2,0.2-0.5,0-0.7c0,0,0,0-0.1,0l-3.2-2.6
									c-0.2-0.2-0.5-0.2-0.7,0c0,0,0,0,0,0.1l-2.1,2.5c-0.2,0.2-0.2,0.5,0,0.7c0,0,0,0,0.1,0l3.2,2.6
									C-310-118.8-309.6-118.9-309.4-119.1z"/>
							</g>
							<g id="Group_1370_9_" transform="translate(74.718 81.888)">
								
									<linearGradient id="Path_3581_1_" gradientUnits="userSpaceOnUse" x1="-900.5862" y1="312.6053" x2="-900.5862" y2="312.407" gradientTransform="matrix(27.5171 0 0 -29.7836 24431.8125 9126.4463)">
									<stop  offset="0" style="stop-color:#6A6A69"/>
									<stop  offset="1" style="stop-color:#353535"/>
								</linearGradient>
								<path id="Path_3581_12_" class="st3" d="M-350.5-178.2l3.2-1c0.3-0.1,0.4-0.4,0.4-0.6c0,0,0,0,0,0l-1.2-3.9
									c-0.1-0.3-0.4-0.4-0.6-0.4c0,0,0,0,0,0l-3.2,1c-0.3,0.1-0.4,0.4-0.4,0.6c0,0,0,0,0,0l1.2,3.9
									C-351.1-178.3-350.8-178.1-350.5-178.2z"/>
							</g>
							<polygon class="st4" points="-276.3,-85.5 -277.1,-79.9 -275.6,-79.8 -275,-83.8 -272.4,-83.4 -273,-79.3 -271.5,-79.1 
								-270.6,-84.8 							"/>
							<g id="Group_1539_9_" transform="matrix(0.978, -0.208, 0.208, 0.978, 52.263, 43.728)">
								<path id="Path_3581-2_12_" class="st1" d="M-292.7-213.5l3.1-1.3c0.3-0.1,0.4-0.4,0.3-0.7c0,0,0,0,0,0l-1.6-3.8
									c-0.1-0.3-0.4-0.4-0.7-0.3c0,0,0,0,0,0l-3.1,1.3c-0.3,0.1-0.4,0.4-0.3,0.7c0,0,0,0,0,0l1.6,3.8
									C-293.3-213.5-293-213.4-292.7-213.5z"/>
							</g>
							<g id="Group_1583_9_" transform="matrix(0.946, 0.326, -0.326, 0.946, 87.486, 117.98)">
								<path id="Path_3581-3_12_" class="st1" d="M-409.5-76.9l3.1-1.3c0.3-0.1,0.4-0.4,0.3-0.7c0,0,0,0,0,0l-1.6-3.8
									c-0.1-0.3-0.4-0.4-0.7-0.3c0,0,0,0,0,0l-3.1,1.3c-0.3,0.1-0.4,0.4-0.3,0.7c0,0,0,0,0,0l1.6,3.8
									C-410.1-77-409.8-76.8-409.5-76.9z"/>
							</g>
						</g>
						<g id="Group_1532_9_" transform="translate(1353 1095.282)">
							<g id="Group_1530_9_" transform="translate(6.404 0)">
								<path id="Path_3892_12_" class="st1" d="M9.1-80.7c-2.7-30,17.7-35,17.9-35l0.4,1.8c-0.8,0.2-18.9,4.7-16.4,33.2L9.1-80.7z"
									/>
							</g>
							
								<linearGradient id="Path_3893_1_" gradientUnits="userSpaceOnUse" x1="-433.3072" y1="396.4713" x2="-433.3072" y2="396.2729" gradientTransform="matrix(31.3654 0 0 -31.5445 13616.5928 12392.7783)">
								<stop  offset="0" style="stop-color:#747473"/>
								<stop  offset="1" style="stop-color:#3A3A3A"/>
							</linearGradient>
							<path id="Path_3893_12_" class="st5" d="M25-107.6l-2.2-2.5c-0.2-0.2-0.2-0.5,0-0.7l3-2.8c0.2-0.2,0.5-0.2,0.7,0l2.2,2.5
								c0.2,0.2,0.2,0.5,0,0.7l-3,2.8C25.5-107.3,25.1-107.4,25-107.6z"/>
							<path id="Path_3894_12_" class="st1" d="M20.5-100.6l-2.9-1.5c-0.3-0.1-0.4-0.4-0.3-0.7l1.9-3.6c0.2-0.3,0.5-0.4,0.8-0.3
								l2.9,1.5c0.3,0.1,0.4,0.4,0.3,0.7l-1.9,3.6C21.1-100.6,20.8-100.5,20.5-100.6z"/>
							
								<linearGradient id="Path_3895_1_" gradientUnits="userSpaceOnUse" x1="-429.6985" y1="397.797" x2="-429.6985" y2="397.5987" gradientTransform="matrix(26.6171 0 0 -29.3343 11454.7656 11570.623)">
								<stop  offset="0" style="stop-color:#6A6A69"/>
								<stop  offset="1" style="stop-color:#353535"/>
							</linearGradient>
							<path id="Path_3895_12_" class="st6" d="M18.4-92.7l-3.2-0.9c-0.3-0.1-0.4-0.4-0.4-0.6c0,0,0,0,0,0l1.1-3.9
								c0.1-0.3,0.4-0.4,0.6-0.4c0,0,0,0,0,0l3.2,0.9c0.3,0.1,0.4,0.4,0.4,0.6c0,0,0,0,0,0L19-93C19-92.8,18.7-92.6,18.4-92.7z"/>
							<polygon class="st4" points="19.4,-82.3 13.8,-81.1 15,-75.4 16.5,-75.9 15.7,-79.9 18.2,-80.4 19,-76.2 20.6,-76.7 							
								"/>
							<path id="Path_3897_12_" class="st1" d="M18.1-84.9l-3.3,0.2c-0.3,0-0.5-0.2-0.5-0.5c0,0,0,0,0,0l-0.3-4
								c0-0.3,0.2-0.5,0.5-0.5c0,0,0,0,0,0l3.3-0.2c0.3,0,0.5,0.2,0.5,0.5c0,0,0,0,0,0l0.3,4C18.6-85.2,18.4-85,18.1-84.9z"/>
						</g>
						
							<linearGradient id="Path_3898_1_" gradientUnits="userSpaceOnUse" x1="907.2173" y1="1500.7964" x2="907.4159" y2="1500.7964" gradientTransform="matrix(327.0591 0 0 -423.5769 -295331.2188 636690.5)">
							<stop  offset="0" style="stop-color:#B3B3B3"/>
							<stop  offset="0.52" style="stop-color:#727271"/>
							<stop  offset="1" style="stop-color:#000000"/>
						</linearGradient>
						<path id="Path_3898_12_" class="st7" d="M1439,1024.2c4-3,6.7-7.4,7.6-13.6c3.2-20.3-2.8-64.8-31.2-64.8
							c-18.9,0-28,18.3-30.8,34.6c-2.3,13.1-5.5,37.2,8.4,45.3c3.5,2,7.5,2.8,11.5,3.4c7.1,1,14.4,1,21.5,0
							C1431.2,1028.3,1435.6,1026.8,1439,1024.2z"/>
						<path id="Path_3899_12_" class="st4" d="M1419.3,957.5c0.4,2.8-1.2,5.9-4.9,5.9s-5.2-3.1-4.9-5.9c-7.8,1.3-13.6,6-13.6,11.4
							c0,6.5,8.3,11.8,18.5,11.8s18.5-5.3,18.5-11.8C1432.9,963.5,1427.1,958.9,1419.3,957.5z"/>
						
							<linearGradient id="Ellipse_43_1_" gradientUnits="userSpaceOnUse" x1="918.0745" y1="1487.3431" x2="918.0745" y2="1487.1458" gradientTransform="matrix(25.99 0 0 -25.99 -22454.0781 39623.4219)">
							<stop  offset="0" style="stop-color:#000000"/>
							<stop  offset="1" style="stop-color:#333333"/>
						</linearGradient>
						<circle id="Ellipse_43_12_" class="st8" cx="1406.7" cy="969.9" r="2.6"/>
						
							<linearGradient id="Ellipse_44_1_" gradientUnits="userSpaceOnUse" x1="915.5698" y1="1487.246" x2="915.7671" y2="1487.246" gradientTransform="matrix(25.99 0 0 -25.99 -22376.1055 39623.4219)">
							<stop  offset="0" style="stop-color:#000000"/>
							<stop  offset="1" style="stop-color:#333333"/>
						</linearGradient>
						<circle id="Ellipse_44_12_" class="st9" cx="1422.1" cy="969.9" r="2.6"/>
						<g id="Group_1534_9_" transform="translate(1468.568 1056.2)" class="st10">
							<g id="Group_1533_9_" transform="translate(64.124 68.209)" class="st11">
								<circle id="Ellipse_45_12_" class="st1" cx="-118" cy="-127" r="12"/>
							</g>
						</g>
						<g id="Group_1536_9_" transform="translate(1486.493 1078.606)">
							<g id="Group_1535_9_" transform="translate(65.469 68.209)">
								<circle id="Ellipse_46_12_" class="st1" cx="-137.6" cy="-149.2" r="7.8"/>
							</g>
						</g>
					</g>
				</g>
			</g>
			<g>
				<g id="XMLID_109_">
					<path id="XMLID_114_" class="st4" d="M63.9,76.9c0.6-0.4,1.2-0.9,1.6-1.6v-3l-1.6,1.1V76.9z"/>
					<path id="XMLID_113_" class="st4" d="M63.2,71.5v-2.9c0-0.4-0.4-0.8-0.8-0.8c-0.4,0-0.8,0.4-0.8,0.8v3l1.1,0.2L63.2,71.5z"/>
					<path id="XMLID_112_" class="st4" d="M61.6,73.7v1.8c0,0.4,0.4,0.8,0.8,0.8c0.4,0,0.8-0.4,0.8-0.8V74l0,0L61.6,73.7z"/>
					<path id="XMLID_111_" class="st4" d="M60.9,69.9c0-0.4-0.4-0.8-0.8-0.8c-0.4,0-0.8,0.4-0.8,0.8v1.3l1.6,0.3V69.9z"/>
					<path id="XMLID_110_" class="st4" d="M59.4,73.8c0,0.4,0.4,0.8,0.8,0.8c0.4,0,0.8-0.4,0.8-0.8v-0.2l-1.6-0.3V73.8z"/>
				</g>
				<path class="st4" d="M68.9,68.6l-1.4-0.2c-0.2,0-0.4,0.2-0.2,0.4l0.3,0.4l-4.7,3.3l-4.4-0.9L54,74.6c-0.2,0.2-0.3,0.5-0.1,0.7
					c0.2,0.2,0.5,0.3,0.7,0.1l4.2-2.9l4.4,0.9l5-3.5l0.3,0.4c0.1,0.2,0.4,0.1,0.4-0.1l0.2-1.4C69.1,68.7,69,68.6,68.9,68.6z"/>
				<path id="XMLID_108_" class="st4" d="M57.1,75.4c0.4,0.6,0.9,1.2,1.6,1.6v-3.7l-1.6,1.1V75.4z"/>
				<g id="XMLID_105_">
					<path id="XMLID_107_" class="st4" d="M55.8,72.7C55.8,72.7,55.8,72.7,55.8,72.7c0-3.1,2.5-5.6,5.5-5.6c1.9,0,3.6,1,4.6,2.5
						l0.7-0.5c-1.2-1.7-3.1-2.9-5.4-2.9c-3.6,0-6.4,2.9-6.4,6.4c0,0.2,0,0.5,0,0.7L55.8,72.7z"/>
					<path id="XMLID_106_" class="st4" d="M66.7,71.6c0.1,0.4,0.1,0.7,0.1,1.1c0,3-2.5,5.5-5.5,5.5c-2.3,0-4.2-1.4-5.1-3.3l-0.8,0.5
						c1,2.2,3.2,3.7,5.8,3.7c3.6,0,6.4-2.9,6.4-6.4c0-0.6-0.1-1.1-0.2-1.7L66.7,71.6z"/>
				</g>
			</g>
		</g>
	</g>
</g>
</svg>
