<svg xmlns="http://www.w3.org/2000/svg" xmlns:xlink="http://www.w3.org/1999/xlink" viewBox="0 0 495.813 423.577">
  <defs>
    <style>
      .cls-1 {
        fill: #1b84e7;
      }

      .cls-2 {
        fill: url(#linear-gradient);
      }

      .cls-3 {
        fill: url(#linear-gradient-2);
      }

      .cls-4, .cls-6 {
        fill: #fff;
      }

      .cls-5 {
        fill: url(#linear-gradient-3);
      }

      .cls-6 {
        stroke: #fff;
        stroke-miterlimit: 10;
        stroke-width: 4px;
      }

      .cls-7 {
        fill: url(#linear-gradient-5);
      }

      .cls-8 {
        fill: url(#linear-gradient-6);
      }

      .cls-9 {
        fill: url(#linear-gradient-7);
      }

      .cls-10 {
        opacity: 0.51;
      }

      .cls-11 {
        fill: none;
        opacity: 0.73;
      }

      .cls-12 {
        opacity: 0.82;
      }
    </style>
    <linearGradient id="linear-gradient" x1="0.5" x2="0.5" y2="1" gradientUnits="objectBoundingBox">
      <stop offset="0" stop-color="#6a6a69"/>
      <stop offset="1" stop-color="#353535"/>
    </linearGradient>
    <linearGradient id="linear-gradient-2" x1="0.5" x2="0.5" y2="1" gradientUnits="objectBoundingBox">
      <stop offset="0" stop-color="#6a6a69"/>
      <stop offset="1" stop-color="#121212"/>
    </linearGradient>
    <linearGradient id="linear-gradient-3" x1="0.5" x2="0.5" y2="1" gradientUnits="objectBoundingBox">
      <stop offset="0" stop-color="#747473"/>
      <stop offset="1" stop-color="#3a3a3a"/>
    </linearGradient>
    <linearGradient id="linear-gradient-5" x1="-0.001" y1="0.5" x2="1" y2="0.5" gradientUnits="objectBoundingBox">
      <stop offset="0" stop-color="#b3b3b3"/>
      <stop offset="0.52" stop-color="#727271"/>
      <stop offset="1"/>
    </linearGradient>
    <linearGradient id="linear-gradient-6" x1="0.507" y1="0.01" x2="0.507" y2="1.005" gradientUnits="objectBoundingBox">
      <stop offset="0"/>
      <stop offset="1" stop-color="#333"/>
    </linearGradient>
    <linearGradient id="linear-gradient-7" x1="-0.003" y1="0.508" x2="0.992" y2="0.508" xlink:href="#linear-gradient-6"/>
  </defs>
  <g id="Group_2713" data-name="Group 2713" transform="translate(-4539.063 -1391.407)">
    <g id="Group_2711" data-name="Group 2711">
      <g id="Group_1702" data-name="Group 1702" transform="translate(3186.063 466.407)">
        <g id="Group_1529" data-name="Group 1529" transform="translate(1735.404 1098.679)">
          <g id="Group_1212" data-name="Group 1212" transform="translate(0 0)">
            <path id="Path_3271" data-name="Path 3271" class="cls-1" d="M187.273,210.827l-9.41-.448C182.792,66.535,90.033,49.058,86,48.162L87.344,39.2C89.137,39.2,192.651,58.917,187.273,210.827Z" transform="translate(-86 -39.2)"/>
          </g>
          <g id="Group_1213" data-name="Group 1213" transform="translate(26.262 8.338)">
            <path id="Path_3272" data-name="Path 3272" class="cls-2" d="M112.65,71.261l10.755-13a2.37,2.37,0,0,0-.448-3.585l-16.132-13a2.37,2.37,0,0,0-3.585.448L92.485,54.68a2.37,2.37,0,0,0,.448,3.585l16.132,13C109.962,72.6,111.754,72.157,112.65,71.261Z" transform="translate(-91.861 -41.061)"/>
          </g>
          <g id="Group_1370" data-name="Group 1370" transform="translate(74.718 81.888)">
            <path id="Path_3581" data-name="Path 3581" class="cls-3" d="M112.2,87.166l16.132-4.929a2.549,2.549,0,0,0,1.792-3.137l-6.274-19.717a2.549,2.549,0,0,0-3.137-1.792L104.583,62.52a2.549,2.549,0,0,0-1.792,3.137l6.274,19.717C109.064,86.718,110.857,87.614,112.2,87.166Z" transform="translate(-102.674 -57.474)"/>
          </g>
          <g id="Group_1372" data-name="Group 1372" transform="translate(78.419 166.697)">
            <g id="Group_1371" data-name="Group 1371">
              <path id="Path_3582" data-name="Path 3582" class="cls-4" d="M129.294,79.789l-3.137,21.957h-1.344l3.137-20.613-19.269-2.689-3.137,20.613H104.2L107.337,77.1Z" transform="translate(-101.063 -73.963)"/>
              <path id="Path_3583" data-name="Path 3583" class="cls-4" d="M130.387,106.872l-5.825-.9,2.689-20.613-14.788-2.241-2.689,20.613-6.274-.448L107.533,76.4l26.887,3.585Z" transform="translate(-103.5 -76.4)"/>
            </g>
          </g>
          <g id="Group_1539" data-name="Group 1539" transform="matrix(0.978, -0.208, 0.208, 0.978, 52.263, 43.728)">
            <path id="Path_3581-2" data-name="Path 3581" class="cls-1" d="M9.527,29.692l16.132-4.929a2.549,2.549,0,0,0,1.792-3.137L21.178,1.909A2.549,2.549,0,0,0,18.041.117L1.909,5.046A2.549,2.549,0,0,0,.117,8.183L6.39,27.9C6.39,29.244,8.183,30.14,9.527,29.692Z" transform="matrix(0.995, -0.105, 0.105, 0.995, 0, 2.882)"/>
          </g>
          <g id="Group_1583" data-name="Group 1583" transform="matrix(0.946, 0.326, -0.326, 0.946, 87.486, 117.98)">
            <path id="Path_3581-3" data-name="Path 3581" class="cls-1" d="M9.527,29.692l16.132-4.929a2.549,2.549,0,0,0,1.792-3.137L21.178,1.909A2.549,2.549,0,0,0,18.041.117L1.909,5.046A2.549,2.549,0,0,0,.117,8.183L6.39,27.9C6.39,29.244,8.183,30.14,9.527,29.692Z" transform="matrix(0.995, -0.105, 0.105, 0.995, 0, 2.882)"/>
          </g>
        </g>
        <g id="Group_1532" data-name="Group 1532" transform="translate(1353 1095.282)">
          <g id="Group_1530" data-name="Group 1530" transform="translate(6.404 0)">
            <path id="Path_3892" data-name="Path 3892" class="cls-1" d="M2.643,214.556C-10.8,63.094,91.817,38,92.713,38l2.241,8.962c-4.033.9-95.448,23.75-82.9,167.146Z" transform="translate(-1.429 -38)"/>
          </g>
          <path id="Path_3893" data-name="Path 3893" class="cls-5" d="M21.525,70.946,10.322,58.4a2.726,2.726,0,0,1,0-3.585L25.558,40.922a2.726,2.726,0,0,1,3.585,0l11.2,12.547a2.726,2.726,0,0,1,0,3.585L25.11,70.946C24.214,72.29,22.421,71.842,21.525,70.946Z" transform="translate(33.593 -30.168)"/>
          <path id="Path_3894" data-name="Path 3894" class="cls-1" d="M19.963,79.15,5.175,71.532c-1.344-.448-1.792-2.241-1.344-3.585l9.41-18.373a3.614,3.614,0,0,1,4.033-1.344l14.788,7.618c1.344.448,1.792,2.241,1.344,3.585L24,77.806A3.614,3.614,0,0,1,19.963,79.15Z" transform="translate(12.75 -2.971)"/>
          <path id="Path_3895" data-name="Path 3895" class="cls-2" d="M18.915,86.618,2.783,82.137A2.549,2.549,0,0,1,.991,79L6.368,59.283A2.549,2.549,0,0,1,9.5,57.491l16.132,4.481a2.549,2.549,0,0,1,1.792,3.137L22.052,84.825C22.052,86.17,20.259,87.066,18.915,86.618Z" transform="translate(3.042 29.443)"/>
          <g id="Group_1531" data-name="Group 1531" transform="translate(2.689 172.465)">
            <path id="Path_3896" data-name="Path 3896" class="cls-6" d="M22.557,76.7l4.481,21.957-1.344.448L21.661,78.492,2.392,82.077,6.425,102.69l-1.344.448L.6,81.181Z" transform="translate(-0.6 -76.7)"/>
          </g>
          <path id="Path_3897" data-name="Path 3897" class="cls-1" d="M20.613,92.442l-16.58.9A2.583,2.583,0,0,1,1.344,90.65L0,70.485A2.583,2.583,0,0,1,2.689,67.8l16.58-.9a2.583,2.583,0,0,1,2.689,2.689L23.3,89.754A2.891,2.891,0,0,1,20.613,92.442Z" transform="translate(0 62.604)"/>
        </g>
        <path id="Path_3898" data-name="Path 3898" class="cls-7" d="M302.086,395.234c20.165-15.236,33.608-37.193,38.538-68.561C356.756,224.5,326.732,0,183.337,0,87.889,0,42.181,92.311,27.842,174.315,16.191,240.188.059,362.074,69.964,402.852c17.476,10.307,37.641,14.34,57.806,17.028a399.475,399.475,0,0,0,108.443,0C262.652,415.847,284.61,408.229,302.086,395.234Z" transform="translate(1413.884 925)"/>
        <path id="Path_3899" data-name="Path 3899" class="cls-4" d="M150.353,13.2c1.792,13.891-6.274,29.575-24.646,29.575S99.269,27.091,101.061,13.2C61.627,19.922,32.5,43.223,32.5,70.558c0,32.712,41.674,59.6,93.207,59.6s93.207-26.887,93.207-59.6C218.914,43.223,189.787,19.922,150.353,13.2Z" transform="translate(1466.136 970.951)"/>
        <circle id="Ellipse_43" data-name="Ellipse 43" class="cls-8" cx="12.995" cy="12.995" r="12.995" transform="translate(1539.862 1033.443)"/>
        <circle id="Ellipse_44" data-name="Ellipse 44" class="cls-9" cx="12.995" cy="12.995" r="12.995" transform="translate(1617.834 1033.443)"/>
        <g id="Group_1534" data-name="Group 1534" class="cls-10" transform="translate(1468.568 1056.2)">
          <rect id="Rectangle_50" data-name="Rectangle 50" class="cls-11" width="259.905" height="259.905" transform="translate(0 0)"/>
          <g id="Group_1533" data-name="Group 1533" class="cls-12" transform="translate(64.124 68.209)">
            <circle id="Ellipse_45" data-name="Ellipse 45" class="cls-1" cx="60.495" cy="60.495" r="60.495"/>
          </g>
        </g>
        <g id="Group_1536" data-name="Group 1536" transform="translate(1486.493 1078.606)">
          <rect id="Rectangle_51" data-name="Rectangle 51" class="cls-11" width="219.574" height="215.093" transform="translate(0 0)"/>
          <g id="Group_1535" data-name="Group 1535" transform="translate(65.469 68.209)">
            <circle id="Ellipse_46" data-name="Ellipse 46" class="cls-1" cx="39.434" cy="39.434" r="39.434"/>
          </g>
        </g>
      </g>
    </g>
    <g id="Group_2712" data-name="Group 2712" transform="translate(4737.691 1615.722)">
      <path id="Path_4343" data-name="Path 4343" class="cls-4" d="M29.481,28.525a40.769,40.769,0,0,1,1.323-4.36,37.458,37.458,0,0,1,3.008-6.307,36.038,36.038,0,0,1,2.616-3.808A36.555,36.555,0,0,1,41.893,8.5a36.038,36.038,0,0,1,6.5-4.215,37.134,37.134,0,0,1,7.3-2.761,41.447,41.447,0,0,1,6.1-1.148,25.816,25.816,0,0,1,3.517-.2A38.049,38.049,0,0,1,75.987,1.784a34.149,34.149,0,0,1,5.319,2.064,40.67,40.67,0,0,1,4.215,2.442,7.347,7.347,0,0,1,1.642,1.279,2.747,2.747,0,0,1,.7,2.66A2.566,2.566,0,0,1,84.765,12a4.331,4.331,0,0,1-1.657-.77,29.958,29.958,0,0,0-9.563-4.52,30.719,30.719,0,0,0-6.6-1.017,37,37,0,0,0-7.281.436,28.172,28.172,0,0,0-8.022,2.514A30.738,30.738,0,0,0,45.119,12.9a31.861,31.861,0,0,0-4.592,4.8,32.544,32.544,0,0,0-4.36,7.586,26.92,26.92,0,0,0-1.046,3.5c-.189.741-.378,1.468-.6,2.195A2.87,2.87,0,0,1,32.083,33.1a2.539,2.539,0,0,1-2.819-2.485A7.33,7.33,0,0,1,29.481,28.525Z" transform="translate(-24.975 0)"/>
      <path id="Path_4344" data-name="Path 4344" class="cls-4" d="M290.687,85.635H290.6c.087-2.674.058-5.334.073-8.008a4.388,4.388,0,0,1,.552-2.34,2.718,2.718,0,0,1,1.759-1.192,6.675,6.675,0,0,1,3.3-.087,3.175,3.175,0,0,1,2.558,3.2c.116,2.7-.029,5.392-.015,8.095a.465.465,0,0,1-.218.451c-1.119.639-2.151,1.439-3.212,2.165-.407.276-.843.538-1.235.843a2.832,2.832,0,0,1-1.817.552,8.669,8.669,0,0,1-1.366-.116c-.2-.044-.305-.131-.305-.349C290.687,87.757,290.687,86.7,290.687,85.635Z" transform="translate(-248.336 -62.967)"/>
      <path id="Path_4345" data-name="Path 4345" class="cls-4" d="M205.931,127.413c.044-1.206.116-2.412.1-3.619a2.453,2.453,0,0,1,1-1.86,2.582,2.582,0,0,1,1.7-.683,7.583,7.583,0,0,1,3.125.218,2.852,2.852,0,0,1,1.889,2.194,12.8,12.8,0,0,1,.218,3.415c-.029.567-.029,1.148-.029,1.715-.015.421-.044.465-.451.421l-6.322-.48c-.334-.029-.669,0-1-.058-.233-.029-.291-.145-.276-.363.029-.291.044-.6.044-.9Z" transform="translate(-175.934 -103.437)"/>
      <path id="Path_4346" data-name="Path 4346" class="cls-4" d="M124.2,177.082a35.93,35.93,0,0,1-.872,6.336,37.041,37.041,0,0,1-2.718,7.7,36.042,36.042,0,0,1-8.836,11.568,37.7,37.7,0,0,1-5.348,3.88,36.85,36.85,0,0,1-9.606,3.982,37.788,37.788,0,0,1-5.566.974,38.684,38.684,0,0,1-5.188.16,32.735,32.735,0,0,1-10.813-2.064,37.48,37.48,0,0,1-6.438-3.1c-.814-.509-1.584-1.09-2.412-1.57a16.183,16.183,0,0,1-2.107-1.744c-.785-.669-1.613-1.323-2.354-2.049a38.188,38.188,0,0,1-4.156-5.029c-.61-.843-1.192-1.715-1.715-2.6a3.4,3.4,0,0,1-.538-2.587,2.569,2.569,0,0,1,4.8-.451,38.574,38.574,0,0,0,3.314,4.651c.1.116.2.233.363.174s.116-.233.116-.349c.015-1.758-.015-3.5.029-5.261.058-2.819.029-5.624.044-8.444a1.607,1.607,0,0,1,.814-1.541,16.529,16.529,0,0,0,2.543-2.049c.291-.247.581-.494.887-.741a3.6,3.6,0,0,1,3.357-.494.5.5,0,0,1,.378.48,10.244,10.244,0,0,1,.116,1.148c.029,1.628.1,3.255.058,4.883s-.015,3.226-.058,4.84c-.058,2.136-.073,4.273-.131,6.409-.044,1.889-.044,3.779-.029,5.653,0,.61.087,1.221.116,1.846.029.552.421.814.814,1.061a16.364,16.364,0,0,0,3.2,1.482,31.792,31.792,0,0,0,4.912,1.453,33.358,33.358,0,0,0,4.651.6,32.351,32.351,0,0,0,5.174-.145,30.947,30.947,0,0,0,5.959-1.206,29.444,29.444,0,0,0,4.665-1.86.83.83,0,0,0,.538-.857c-.015-4.81-.015-9.606-.015-14.417h0V173.173a.6.6,0,0,1,.247-.538c1.715-1.352,3.473-2.616,5.246-3.88.77-.552,1.555-1.09,2.369-1.584.087-.058.174-.145.276-.087.131.058.087.2.087.305.015,5.217,0,10.42.029,15.638.029,4.258.029,8.531.044,12.789,0,.116-.044.276.058.32.131.058.2-.1.291-.174a15.122,15.122,0,0,0,2.529-3.081,36.331,36.331,0,0,0,4.142-8.633,26.737,26.737,0,0,0,1.192-5.842,34.418,34.418,0,0,0,.116-5.334,31.952,31.952,0,0,0-.857-5.363c-.218-.959-.465-1.9-.683-2.863a2.614,2.614,0,0,1,1.221-2.616,2.9,2.9,0,0,1,2.136-.334,2.09,2.09,0,0,1,1.555,1.221,10.881,10.881,0,0,1,.683,2.006,40.547,40.547,0,0,1,1.1,5.566A32.46,32.46,0,0,1,124.2,177.082Z" transform="translate(-47.362 -138.166)"/>
      <path id="Path_4347" data-name="Path 4347" class="cls-4" d="M206.154,267.213c.015-.421.044-.857.058-1.279a.315.315,0,0,1,.363-.334h.974c1.817.015,3.619.233,5.421.407l.93.087c.174.015.262.087.262.276-.029,1.337-.058,2.689-.073,4.026,0,.305-.029.61-.029.9a2.924,2.924,0,0,1-1.613,2.63,3.642,3.642,0,0,1-2.165.422,8.653,8.653,0,0,1-1.918-.233,3.579,3.579,0,0,1-1.831-1.424c-.174-.218-.116-.523-.131-.785A39.067,39.067,0,0,1,206.154,267.213Z" transform="translate(-176.156 -226.858)"/>
      <path id="Path_4348" data-name="Path 4348" class="cls-4" d="M290.766,269.605c-.015-2.383-.029-4.767,0-7.165,0-.276.087-.349.363-.363a32.052,32.052,0,0,1,3.546.233,3.271,3.271,0,0,0,2.645-.857,3.882,3.882,0,0,1,1.177-.814c.407-.174.465-.131.48.305.073,2.819.044,5.653.044,8.473,0,2.18.015,4.36,0,6.54a3.417,3.417,0,0,1-.523,2.18,4.3,4.3,0,0,1-2.7,1.657,4.558,4.558,0,0,1-3.314-.523,3.469,3.469,0,0,1-1.613-2.456,12.647,12.647,0,0,1-.131-2.965C290.781,272.439,290.766,271.015,290.766,269.605Z" transform="translate(-248.43 -222.536)"/>
      <path id="Path_4349" data-name="Path 4349" class="cls-4" d="M77.623,56.759a19.567,19.567,0,0,1-1.192,3.909c-.305.654-.683.785-1.381.509a2.8,2.8,0,0,1-1.264-1.163,24.148,24.148,0,0,0-1.468-2.136l-.044-.044a1.855,1.855,0,0,0-.639-.581c-.32-.116-.465.262-.683.436-1.41,1.119-2.892,2.151-4.3,3.27q-3.662,2.9-7.339,5.784c-1.628,1.279-3.255,2.529-4.883,3.793-1.41,1.1-2.819,2.224-4.229,3.314-.669.523-1.308,1.061-1.933,1.628a3.374,3.374,0,0,1-2.6.741c-2.078-.131-4.156-.305-6.235-.465-2.412-.189-4.81-.407-7.223-.61-1.9-.16-3.793-.305-5.7-.451-.988-.073-1.962-.218-2.95-.262a3.433,3.433,0,0,0-2.485.887c-2.383,2.049-4.781,4.055-7.179,6.075-2.049,1.729-4.1,3.444-6.148,5.174-1.323,1.119-2.63,2.238-3.953,3.357A2.162,2.162,0,0,1,1.571,90,3.023,3.023,0,0,1,.045,87.453a3.517,3.517,0,0,1,1.424-3.11C3.3,82.86,5.131,81.393,6.963,79.91c2.224-1.788,4.433-3.59,6.671-5.363,2.18-1.715,4.345-3.473,6.671-5.014a1.856,1.856,0,0,1,1.264-.305c1.352.116,2.7.189,4.055.291,1.148.087,2.3.218,3.459.32,1.221.116,2.456.2,3.677.32,1.323.116,2.66.247,3.982.349,1.468.131,2.921.247,4.389.349.93.073,1.846.174,2.776.16.349,0,.683.058,1.032.044a4.124,4.124,0,0,0,2.122-.93,72.811,72.811,0,0,0,6.148-4.81c1.381-1.148,2.747-2.3,4.113-3.459,1.7-1.453,3.415-2.907,5.159-4.316a45.859,45.859,0,0,1,5.435-4c.029-.015.073-.044.1-.058.581-.32.6-.392.291-1a9.5,9.5,0,0,0-1.8-2.427,4.158,4.158,0,0,1-.77-1.119.86.86,0,0,1,.7-1.264,21.942,21.942,0,0,1,2.936-.1H70.4c1.381.029,2.776.1,4.156.029.756-.044,1.511-.087,2.282-.116a8.658,8.658,0,0,1,1.5.116,1.155,1.155,0,0,1,1.075,1.264,5.079,5.079,0,0,1-.233,1.541C78.582,52.5,78.131,54.637,77.623,56.759Z" transform="translate(0 -40.442)"/>
    </g>
  </g>
</svg>
